<svg xmlns="http://www.w3.org/2000/svg" viewBox="0 0 64 64">
  <defs>
    <linearGradient id="bg" x1="0" y1="0" x2="1" y2="1">
      <stop offset="0%" stop-color="#0f172a"/>
      <stop offset="100%" stop-color="#1e3a5f"/>
    </linearGradient>
    <linearGradient id="ball" x1="0" y1="0" x2="1" y2="1">
      <stop offset="0%" stop-color="#e2e8f0"/>
      <stop offset="100%" stop-color="#94a3b8"/>
    </linearGradient>
  </defs>
  <!-- Background shield shape -->
  <path d="M32 2 L56 14 L56 38 Q56 54 32 62 Q8 54 8 38 L8 14 Z" fill="url(#bg)" stroke="#3b82f6" stroke-width="2"/>
  <!-- Football -->
  <circle cx="32" cy="28" r="12" fill="url(#ball)" stroke="#475569" stroke-width="0.8"/>
  <!-- Pentagon patches -->
  <path d="M32 20 L37 24 L35 30 L29 30 L27 24 Z" fill="#334155" stroke="#475569" stroke-width="0.6"/>
  <path d="M37 24 L42 28 L40 34 L35 30 Z" fill="#334155" stroke="#475569" stroke-width="0.6"/>
  <path d="M27 24 L22 28 L24 34 L29 30 Z" fill="#334155" stroke="#475569" stroke-width="0.6"/>
  <!-- Stars -->
  <polygon points="32,6 33,9 36,9 33.5,11 34.5,14 32,12 29.5,14 30.5,11 28,9 31,9" fill="#fbbf24"/>
  <circle cx="18" cy="10" r="1.2" fill="#fbbf24" opacity="0.7"/>
  <circle cx="46" cy="10" r="1.2" fill="#fbbf24" opacity="0.7"/>
  <!-- Bottom text -->
  <text x="32" y="48" text-anchor="middle" fill="#3b82f6" font-family="Arial,Helvetica,sans-serif" font-size="6" font-weight="900" letter-spacing="1">FLU</text>
  <text x="32" y="55" text-anchor="middle" fill="#64748b" font-family="Arial,Helvetica,sans-serif" font-size="3.5">UNIVERSE</text>
</svg>
